<svg width="296" height="207" viewBox="0 0 296 207" fill="none" xmlns="http://www.w3.org/2000/svg">
<path d="M148 206.912C229.738 206.912 296 188.446 296 165.666C296 142.887 229.738 124.42 148 124.42C66.2619 124.42 9.15527e-05 142.887 9.15527e-05 165.666C9.15527e-05 188.446 66.2619 206.912 148 206.912Z" fill="url(#paint0_linear_3_853)"/>
<path d="M93.0966 15.1616H205.149C207.439 15.1616 209.299 17.0216 209.299 19.3114V162.028C209.299 164.318 207.439 166.178 205.149 166.178H93.0966C90.8068 166.178 88.9468 164.318 88.9468 162.028V19.3114C88.9542 17.0216 90.8068 15.1616 93.0966 15.1616Z" fill="#D2D2D2"/>
<path d="M99.1286 15.1616H210.914C213.278 15.1616 215.197 17.0808 215.197 19.4448V161.894C215.197 164.258 213.278 166.178 210.914 166.178H99.1286C96.7647 166.178 94.8455 164.258 94.8455 161.894V19.4448C94.8455 17.0808 96.7573 15.1616 99.1286 15.1616Z" fill="#E1E1E1"/>
<path d="M109.155 25.5435H201.94C203.126 25.5435 204.089 26.5069 204.089 27.6925V154.654C204.089 155.84 203.126 156.803 201.94 156.803H109.155C107.969 156.803 107.006 155.84 107.006 154.654V27.6925C107.006 26.5069 107.969 25.5435 109.155 25.5435Z" fill="#FAFAFC"/>
<path d="M186.749 71.5545H150.038C148.497 71.5545 147.244 70.2948 147.244 68.7608V60.9281C147.244 59.3867 148.504 58.1343 150.038 58.1343H186.749C188.29 58.1343 189.543 59.3941 189.543 60.9281V68.7608C189.55 70.2948 188.29 71.5545 186.749 71.5545Z" fill="#ECECEC"/>
<path d="M137.766 70.6282H124.798C123.257 70.6282 122.004 69.3684 122.004 67.8345V60.0017C122.004 58.4604 123.264 57.208 124.798 57.208H137.766C139.308 57.208 140.56 58.4678 140.56 60.0017V67.8345C140.567 69.3684 139.308 70.6282 137.766 70.6282Z" fill="#ECECEC"/>
<path d="M186.749 96.0088H126.562C125.021 96.0088 123.768 94.749 123.768 93.2151V85.3823C123.768 83.8409 125.028 82.5886 126.562 82.5886H186.749C188.29 82.5886 189.543 83.8483 189.543 85.3823V93.2151C189.55 94.7564 188.29 96.0088 186.749 96.0088Z" fill="#ECECEC"/>
<path d="M186.749 121.389H126.562C125.021 121.389 123.768 120.129 123.768 118.596V110.763C123.768 109.221 125.028 107.969 126.562 107.969H186.749C188.29 107.969 189.543 109.229 189.543 110.763V118.596C189.55 120.137 188.29 121.389 186.749 121.389Z" fill="#ECECEC"/>
<path d="M122.004 31.4941V14.5169C122.004 11.6417 124.361 9.2852 127.236 9.2852H145.673C146.659 4.0016 151.29 0 156.863 0C162.435 0 167.067 4.0016 168.053 9.2852H184.318C187.194 9.2852 189.55 11.6417 189.55 14.5169V31.4941H122.004Z" fill="#D2D2D0"/>
<path d="M117.714 25.5435L122.004 31.494V25.5435H117.714Z" fill="#BDBDBE"/>
<path d="M156.663 17.8442C160.494 17.8442 163.599 14.7388 163.599 10.9081C163.599 7.07739 160.494 3.97198 156.663 3.97198C152.832 3.97198 149.727 7.07739 149.727 10.9081C149.727 14.7388 152.832 17.8442 156.663 17.8442Z" fill="#C4C4C4"/>
<defs>
<linearGradient id="paint0_linear_3_853" x1="148.003" y1="206.912" x2="148.003" y2="124.42" gradientUnits="userSpaceOnUse">
<stop stop-color="white"/>
<stop offset="1" stop-color="#E7E7E7"/>
</linearGradient>
</defs>
</svg>
